<?xml version="1.0" encoding="iso-8859-1"?>
<!-- Generator: Adobe Illustrator 19.1.0, SVG Export Plug-In . SVG Version: 6.00 Build 0)  -->
<svg version="1.1" id="Capa_1" xmlns="http://www.w3.org/2000/svg" xmlns:xlink="http://www.w3.org/1999/xlink" x="0px" y="0px"
	 viewBox="0 0 488.416 488.416" style="enable-background:new 0 0 488.416 488.416;" xml:space="preserve">
<g>
	<g>
		<path d="M64.708,310.916c4.6,0,8.3-3.7,8.3-8.3v-47.9h161.6v47.9c0,4.6,3.7,8.3,8.3,8.3c4.6,0,8.3-3.7,8.3-8.3v-47.9h161.6v47.9
			c0,4.6,3.7,8.3,8.3,8.3c4.6,0,8.3-3.7,8.3-8.3v-56.3c0-4.6-3.7-8.3-8.3-8.3h-169.4v-51.6c0-4.6-3.7-8.3-8.3-8.3s-8.3,3.7-8.3,8.3
			v51.6h-170.4c-4.6,0-8.3,3.7-8.3,8.3v56.3C56.408,307.216,60.108,310.916,64.708,310.916z"/>
		<path d="M242.908,154.216h66.9c-0.4-27.8,0.8-42.7-17.3-49.2c-16.4-6.3-26.2-12.7-26.2-12.7l-12.6,39.9l-1.7,5.4l-5.7-16
			c13-18.1-1-19-3.4-19l0,0l0,0l0,0l0,0l0,0l0,0c-2.4,0-16.4,0.9-3.4,19l-5.7,16l-1.7-5.4l-12.6-39.9c0,0-9.8,6.4-26.2,12.7
			c-18,6.6-16.9,21.4-17.3,49.2H242.908L242.908,154.216z"/>
		<path d="M214.408,67.016c1.4,9.4,8.7,21.3,20.6,25.5c4.9,1.7,10.2,1.7,15.1,0c11.7-4.2,19.2-16.1,20.6-25.5
			c1.6-0.1,3.6-2.3,5.9-10.2c3.1-10.8-0.2-12.4-2.9-12.1c0.5-1.5,0.9-3,1.2-4.4c4.6-27.9-9.1-28.9-9.1-28.9s-2.3-4.4-8.3-7.7
			c-4-2.4-9.6-4.2-17-3.6c-2.4,0.1-4.7,0.6-6.8,1.3l0,0c-2.7,0.9-5.2,2.3-7.5,3.8c-2.8,1.8-5.4,3.9-7.7,6.3
			c-3.6,3.7-6.9,8.5-8.3,14.5c-1.2,4.5-0.9,9.2,0.1,14.2l0,0c0.3,1.5,0.7,2.9,1.2,4.4c-2.7-0.3-6,1.3-2.9,12.1
			C210.808,64.716,212.908,66.916,214.408,67.016z"/>
		<path d="M292.508,439.216c-16.4-6.3-26.2-12.7-26.2-12.7l-12.6,39.9l-1.7,5.4l-5.7-16c13-18.1-1-19-3.4-19l0,0l0,0l0,0l0,0l0,0
			l0,0c-2.4,0-16.4,0.9-3.4,19l-5.7,16l-1.7-5.4l-12.6-39.9c0,0-9.8,6.4-26.2,12.7c-18,6.6-16.9,21.4-17.3,49.2h66.9h0.2h66.9
			C309.408,460.616,310.508,445.816,292.508,439.216z"/>
		<path d="M208.608,391.016c2.2,7.9,4.3,10.1,5.9,10.2c1.4,9.4,8.7,21.3,20.6,25.5c4.9,1.7,10.2,1.7,15.1,0
			c11.7-4.2,19.2-16.1,20.6-25.5c1.6-0.1,3.6-2.3,5.9-10.2c3.1-10.8-0.2-12.4-2.9-12.1c0.5-1.5,0.9-3,1.2-4.4
			c4.6-27.9-9.1-28.9-9.1-28.9s-2.3-4.4-8.3-7.7c-4-2.4-9.6-4.2-17-3.6c-2.4,0.1-4.7,0.6-6.8,1.3l0,0c-2.7,0.9-5.2,2.3-7.5,3.8
			c-2.8,1.8-5.4,3.9-7.7,6.3c-3.6,3.7-6.9,8.5-8.3,14.5c-1.2,4.5-0.9,9.2,0.1,14.2l0,0c0.3,1.5,0.7,2.9,1.2,4.4
			C208.808,378.716,205.508,380.316,208.608,391.016z"/>
		<path d="M470.908,439.216c-16.4-6.3-26.2-12.7-26.2-12.7l-12.6,39.9l-1.7,5.4l-5.7-16c13-18.1-1-19-3.4-19l0,0l0,0l0,0l0,0l0,0
			l0,0c-2.4,0-16.4,0.9-3.4,19l-5.7,16l-1.7-5.4l-12.6-39.9c0,0-9.8,6.4-26.2,12.7c-18,6.6-16.9,21.4-17.3,49.2h66.9h0.2h66.9
			C487.808,460.616,488.908,445.816,470.908,439.216z"/>
		<path d="M418.808,334.316c-2.4,0.1-4.7,0.6-6.8,1.3l0,0c-2.7,0.9-5.2,2.3-7.5,3.8c-2.8,1.8-5.4,3.9-7.7,6.3
			c-3.6,3.7-6.9,8.5-8.3,14.5c-1.2,4.5-0.9,9.2,0.1,14.2l0,0c0.3,1.5,0.7,2.9,1.2,4.4c-2.7-0.3-6,1.3-2.9,12.1
			c2.2,7.9,4.3,10.1,5.9,10.2c1.4,9.4,8.7,21.3,20.6,25.5c4.9,1.7,10.2,1.7,15.1,0c11.7-4.2,19.2-16.1,20.6-25.5
			c1.6-0.1,3.6-2.3,5.9-10.2c3.1-10.8-0.2-12.4-2.9-12.1c0.5-1.5,0.9-3,1.2-4.4c4.6-27.9-9.1-28.9-9.1-28.9s-2.3-4.4-8.3-7.7
			C431.808,335.516,426.208,333.616,418.808,334.316z"/>
		<path d="M116.508,439.216c-16.4-6.3-26.2-12.7-26.2-12.7l-12.6,39.9l-1.7,5.4l-5.7-16c13-18.1-1-19-3.4-19l0,0l0,0l0,0l0,0l0,0
			l0,0c-2.4,0-16.4,0.9-3.4,19l-5.7,16l-1.7-5.4l-12.6-39.9c0,0-9.8,6.4-26.2,12.7c-18,6.6-16.9,21.4-17.3,49.2h66.9h0.2h66.9
			C133.408,460.616,134.508,445.816,116.508,439.216z"/>
		<path d="M38.408,401.316c1.4,9.4,8.7,21.3,20.6,25.5c4.9,1.7,10.2,1.7,15.1,0c11.7-4.2,19.2-16.1,20.6-25.5
			c1.6-0.1,3.6-2.3,5.9-10.2c3.1-10.8-0.2-12.4-2.9-12.1c0.5-1.5,0.9-3,1.2-4.4c4.6-27.9-9.1-28.9-9.1-28.9s-2.3-4.4-8.3-7.7
			c-4-2.4-9.6-4.2-17-3.6c-2.4,0.1-4.7,0.6-6.8,1.3l0,0c-2.7,0.9-5.2,2.3-7.5,3.8c-2.8,1.8-5.4,3.9-7.7,6.3
			c-3.6,3.7-6.9,8.5-8.3,14.5c-1.2,4.5-0.9,9.2,0.1,14.2l0,0c0.3,1.5,0.7,2.9,1.2,4.4c-2.7-0.3-6,1.3-2.9,12.1
			C34.808,398.916,36.908,401.116,38.408,401.316z"/>
	</g>
</g>
<g>
</g>
<g>
</g>
<g>
</g>
<g>
</g>
<g>
</g>
<g>
</g>
<g>
</g>
<g>
</g>
<g>
</g>
<g>
</g>
<g>
</g>
<g>
</g>
<g>
</g>
<g>
</g>
<g>
</g>
</svg>
