<?xml version="1.0" encoding="iso-8859-1"?>
<!-- Generator: Adobe Illustrator 19.0.0, SVG Export Plug-In . SVG Version: 6.00 Build 0)  -->
<svg version="1.1" id="Capa_1" xmlns="http://www.w3.org/2000/svg" xmlns:xlink="http://www.w3.org/1999/xlink" x="0px" y="0px"
	 viewBox="0 0 480 480" style="enable-background:new 0 0 480 480;" xml:space="preserve">
<path style="fill:#E6E6E6;" d="M376,8H80C66.745,8,56,18.745,56,32v440h344c13.255,0,24-10.745,24-24l0,0V32
	c0-13.255,10.745-24,24-24H376z"/>
<g>
	<path style="fill:#0071BC;" d="M400,472c-13.255,0-24-10.745-24-24l0,0v-16H8v16c0,13.255,10.745,24,24,24l0,0H400z"/>
	<path style="fill:#0071BC;" d="M424,128V32c0-13.255,10.745-24,24-24s24,10.745,24,24v96H424z"/>
</g>
<g>
	<circle style="fill:#FBB03B;" cx="280" cy="240" r="24"/>
	<circle style="fill:#FBB03B;" cx="360" cy="280" r="24"/>
	<circle style="fill:#FBB03B;" cx="360" cy="184" r="24"/>
</g>
<path d="M448,0H80C62.327,0,48,14.327,48,32v392H8c-4.418,0-8,3.582-8,8v16c0,17.673,14.327,32,32,32h368c17.673,0,32-14.327,32-32
	V136h40c4.418,0,8-3.582,8-8V32C480,14.327,465.673,0,448,0z M32,464c-8.837,0-16-7.163-16-16v-8h352v8
	c-0.009,5.619,1.474,11.141,4.296,16H32z M416,448c0,8.837-7.163,16-16,16s-16-7.163-16-16v-16c0-4.418-3.582-8-8-8H64V32
	c0-8.837,7.163-16,16-16h340.448c-2.879,4.843-4.415,10.366-4.448,16V448z M464,120h-32V32c0-8.837,7.163-16,16-16s16,7.163,16,16
	V120z"/>
<path d="M144,148.944V168h16v-19.056l24-12l24,12V168h16v-19.056l27.576-13.744c2.725-1.362,4.441-4.153,4.424-7.2V96h16V80h-22.112
	L224,67.056V48h-16v19.056l-24,12l-24-12V48h-16v19.056L116.424,80.84c-2.712,1.355-4.425,4.128-4.424,7.16v32H96v16h22.112
	L144,148.944z M240,123.056l-24,12l-24-12V92.944l24-12l24,12V123.056z M128,92.944l24-12l24,12v30.112l-24,12l-24-12V92.944z"/>
<path d="M88,232h136v16H88V232z"/>
<path d="M88,264h104v16H88V264z"/>
<path d="M136,200h88v16h-88V200z"/>
<path d="M256,40h16v16h-16V40z"/>
<path d="M104,200h16v16h-16V200z"/>
<path d="M264,384h128v16H264V384z"/>
<path d="M312,352h80v16h-80V352z"/>
<path d="M280,352h16v16h-16V352z"/>
<path d="M304,112h88v16h-88V112z"/>
<path d="M336,80h56v16h-56V80z"/>
<path d="M304,80h16v16h-16V80z"/>
<path d="M288,40h16v16h-16V40z"/>
<path d="M88,360h16v40H88V360z"/>
<path d="M120,336h16v64h-16V336z"/>
<path d="M152,360h16v40h-16V360z"/>
<path d="M184,328h16v72h-16V328z"/>
<path d="M216,376h16v24h-16V376z"/>
<path d="M360,216c17.673,0,32-14.327,32-32s-14.327-32-32-32s-32,14.327-32,32c0.037,3.601,0.689,7.17,1.928,10.552l-28.8,21.6
	c-13.216-11.667-33.388-10.41-45.054,2.806c-11.667,13.216-10.41,33.388,2.806,45.054c13.216,11.667,33.388,10.41,45.054-2.806
	c0.983-1.114,1.887-2.295,2.706-3.534l24,9.6c-7.262,16.378,0.128,35.543,16.506,42.805c16.378,7.262,35.543-0.128,42.805-16.506
	s-0.128-35.543-16.506-42.805c-10.609-4.704-22.924-3.382-32.293,3.466l-29.4-11.752c0.064-0.8,0.248-1.6,0.248-2.48
	c-0.037-3.601-0.689-7.17-1.928-10.552l28.8-21.6C344.673,213.07,352.195,215.972,360,216L360,216z M360,264c8.837,0,16,7.163,16,16
	s-7.163,16-16,16s-16-7.163-16-16S351.163,264,360,264z M360,168c8.837,0,16,7.163,16,16s-7.163,16-16,16s-16-7.163-16-16
	S351.163,168,360,168z M280,256c-8.837,0-16-7.163-16-16c0-8.837,7.163-16,16-16s16,7.163,16,16C296,248.837,288.837,256,280,256z"
	/>
<g>
</g>
<g>
</g>
<g>
</g>
<g>
</g>
<g>
</g>
<g>
</g>
<g>
</g>
<g>
</g>
<g>
</g>
<g>
</g>
<g>
</g>
<g>
</g>
<g>
</g>
<g>
</g>
<g>
</g>
</svg>
