<svg id="Capa_1" enable-background="new 0 0 512.001 512.001" height="512" viewBox="0 0 512.001 512.001" width="512" xmlns="http://www.w3.org/2000/svg"><g id="XMLID_2309_"><g id="XMLID_81_"><path id="XMLID_125_" d="m220.113 107.5v112c0 5.523 4.478 10 10 10s10-4.477 10-10v-112c0-5.523-4.478-10-10-10s-10 4.477-10 10z"/><path id="XMLID_126_" d="m135.15 229.5h.087c5.327-.037 10.06-3.451 11.797-8.561l36.569-110.081c1.741-5.241-1.097-10.902-6.338-12.643-5.234-1.739-10.9 1.096-12.643 6.337l-29.628 89.186-31.072-89.518c-1.811-5.216-7.505-7.979-12.727-6.168-5.218 1.811-7.979 7.509-6.168 12.727l38.317 110.388c1.777 4.994 6.513 8.333 11.806 8.333z"/><path id="XMLID_129_" d="m296.113 219.5v-38.705c7.161-.039 16.375-.083 21.186-.083 23.283 0 42.226-18.665 42.226-41.606s-18.943-41.606-42.226-41.606h-31.186c-5.522 0-10 4.477-10 10v112c0 5.523 4.478 10 10 10s10-4.477 10-10zm43.411-80.393c0 11.712-10.178 21.606-22.226 21.606-4.824 0-14.015.043-21.186.082v-43.295h21.186c12.049 0 22.226 9.895 22.226 21.607z"/><path id="XMLID_130_" d="m84.476 270.5c0 5.522 4.478 10 10 10h255.049c5.522 0 10-4.478 10-10s-4.478-10-10-10h-255.049c-5.523 0-10 4.478-10 10z"/><path id="XMLID_145_" d="m507.893 306.52c-3.235-2.36-7.565-2.563-11.008-.514l-44.105 26.253-8.78-8.836v-254.423c0-23.159-18.841-42-42-42h-135.003c-5.522 0-10 4.477-10 10s4.478 10 10 10h135.003c12.131 0 22 9.869 22 22v234.295l-12.017-12.094c-1.877-1.889-4.431-2.951-7.094-2.951s-5.216 1.063-7.094 2.951l-40.797 41.058-44.104-26.253c-3.44-2.048-7.771-1.845-11.008.514-3.235 2.359-4.751 6.422-3.853 10.324l3.262 14.156h-259.295c-12.131 0-22-9.869-22-22v-240c0-12.131 9.869-22 22-22h135c5.522 0 10-4.477 10-10s-4.478-10-10-10h-135c-23.159 0-42 18.842-42 42v240c0 23.159 18.841 42 42 42h263.902l17.271 74.978c-8.941 5.681-14.892 15.667-14.892 27.022 0 17.645 14.355 32 32 32h129.217c17.645 0 32-14.355 32-32 0-11.355-5.95-21.341-14.892-27.022l25.139-109.135c.899-3.901-.617-7.964-3.852-10.323zm-38.395 158.48h-129.217c-6.617 0-12-5.383-12-12s5.383-12 12-12h129.217c6.617 0 12 5.383 12 12s-5.383 12-12 12zm-2.269-44h-124.679l-19.771-85.836 30.697 18.272c3.943 2.348 8.976 1.71 12.209-1.544l39.205-39.455 39.204 39.455c3.234 3.254 8.268 3.892 12.209 1.544l30.698-18.272z"/><path id="XMLID_147_" d="m404.89 357.5c-5.522 0-10 4.478-10 10v17c0 5.522 4.478 10 10 10s10-4.478 10-10v-17c0-5.522-4.478-10-10-10z"/><path id="XMLID_148_" d="m222 47c2.63 0 5.21-1.07 7.069-2.93 1.861-1.86 2.931-4.44 2.931-7.07s-1.07-5.21-2.931-7.07c-1.859-1.86-4.439-2.93-7.069-2.93s-5.21 1.07-7.07 2.93-2.93 4.44-2.93 7.07 1.069 5.21 2.93 7.07 4.44 2.93 7.07 2.93z"/></g></g></svg>